<svg width="28" height="28" viewBox="0 0 28 24" fill="none" xmlns="http://www.w3.org/2000/svg">
<path d="M24.6665 0H8.6665C7.19374 0 5.99984 1.19391 5.99984 2.66667V6.66667C5.99984 7.40305 5.40288 8 4.6665 8C2.45737 8 0.666504 9.79086 0.666504 12C0.666504 14.2091 2.45737 16 4.6665 16C5.40288 16 5.99984 16.597 5.99984 17.3333V21.3333C5.99984 22.8061 7.19374 24 8.6665 24H11.3332C12.0696 24 12.6665 23.403 12.6665 22.6667C12.6665 20.4575 14.4574 18.6667 16.6665 18.6667C18.8756 18.6667 20.6665 20.4575 20.6665 22.6667C20.6665 23.403 21.2635 24 21.9998 24H24.6665C26.1393 24 27.3332 22.8061 27.3332 21.3333V17.3333C27.3332 16.597 26.7362 16 25.9998 16C23.7907 16 21.9998 14.2091 21.9998 12C21.9998 9.79086 23.7907 8 25.9998 8C26.7362 8 27.3332 7.40305 27.3332 6.66667V2.66667C27.3332 1.19391 26.1393 0 24.6665 0Z" fill="currentColor"/>
</svg>
